<svg clip-rule="evenodd" fill-rule="evenodd" image-rendering="optimizeQuality" shape-rendering="geometricPrecision" text-rendering="geometricPrecision" viewBox="0 0 512 512" xmlns="http://www.w3.org/2000/svg"><g id="Layer_x0020_1"><path d="m437 488 28-21h-410c-7 0-12-5-12-12v-45h-23c-16 0-16-24 0-24h23v-71h-23c-16 0-16-24 0-24h23v-70h-23c-16 0-16-24 0-24h23v-71h-23c-16 0-16-24 0-24h23v-52l-21 28c-10 13-29-2-20-14 6-8 42-56 45-59 6-5 14-4 18 2l43 57c9 13-10 27-20 14l-21-28v393h398l-28-22c-13-9 2-28 14-19l57 44c5 4 5 14-1 18l-56 43c-12 10-27-9-14-19zm-242-319h-105c-7 0-12-6-12-12v-43c0-7 5-12 12-12h105c7 0 12 5 12 12v43c0 6-5 12-12 12zm-93-24h81v-19h-81zm366 24h-208c-7 0-12-6-12-12v-43c0-7 5-12 12-12h208c7 0 12 5 12 12v43c0 6-5 12-12 12zm-196-24h184v-19h-184zm-89 129h-93c-7 0-12-6-12-12v-43c0-7 5-12 12-12h105c7 0 12 5 12 12v30h93c7 0 12 5 12 12v31h94c7 0 12 5 12 12v43c0 6-5 12-12 12h-105c-7 0-12-6-12-12v-31h-94c-7 0-12-6-12-12zm-81-24h81v-19h-81zm105 42h81v-19h-81zm106 43h81v-19h-81zm-12 97h-207c-7 0-12-6-12-12v-43c0-7 5-12 12-12h207c7 0 12 5 12 12v43c0 6-5 12-12 12zm-195-24h183v-19h-183z"/></g></svg>